<?xml version="1.0" encoding="UTF-8"?>
<svg width="20px" height="20px" viewBox="0 0 20 20" version="1.1" xmlns="http://www.w3.org/2000/svg" xmlns:xlink="http://www.w3.org/1999/xlink">
    <!-- Generator: Sketch 55 (78076) - https://sketchapp.com -->
    <title>Fill 1</title>
    <desc>Created with Sketch.</desc>
    <g id="官网h5" stroke="none" stroke-width="1" fill="none" fill-rule="evenodd">
        <g id="ONT-ID-2.0-Landingpage" transform="translate(-1772.000000, -86.000000)" fill="#000000">
            <g id="编组-4" transform="translate(1772.000000, 85.000000)">
                <path d="M19.208431,7.11173638 C17.6950963,3.52619044 14.1443901,1 10.0000711,1 C4.48193881,1 0,5.47027961 0,11.0000568 C0,16.5180391 4.47028596,21 10.0000711,21 C15.529714,21 20,16.529692 20,11.0000568 C20,9.14899132 19.208431,7.11173638 19.208431,7.11173638 Z M1.49014269,11.0000568 C1.49014269,9.94067291 1.68798521,8.91619061 2.03725783,7.98493091 C2.49132076,8.24095201 3.08496201,8.28756331 3.08496201,8.79983288 C3.08496201,10.4761344 3.14325464,12.2805887 4.76137964,12.3038943 C4.80790574,12.3038943 5.6577674,12.6065267 6.06521897,13.6077318 C6.20488254,13.9570039 6.76367894,13.6077318 7.36905829,13.6077318 C7.67171955,13.6077318 7.36905829,14.0966673 7.36905829,15.14437 C7.36905829,16.1921011 9.7439359,17.7986847 9.7439359,17.7986847 C9.73228306,18.4854624 9.76724159,19.0558824 9.81376769,19.4983203 C5.20370447,19.4168074 1.49014269,15.6449867 1.49014269,11.0000568 Z M12.0489817,19.2538383 C12.3864594,17.9033611 12.5494571,17.1350989 13.2480023,16.5646789 C14.2608617,15.7381241 13.3760131,14.8067507 12.5960969,14.9115693 C11.9790363,15.0047066 12.3749202,14.2014575 11.8276914,14.1548462 C11.2922291,14.1199729 10.5704919,13.0954622 9.80211485,12.7345373 C9.39466328,12.5483479 8.97555887,12.0477595 8.34695911,12.0244539 C7.7881627,12.0011482 6.96160673,12.4785162 6.96160673,12.1175912 C6.96160673,10.9417643 6.83351073,10.1036704 6.81029031,9.76605106 C6.78698463,9.48661062 6.62398695,9.67291372 7.38073956,9.69621937 C7.7881627,9.70775851 7.59023492,8.90450936 8.00933933,8.86966457 C8.40510963,8.84635892 9.3713576,9.23047583 9.62746433,9.06750681 C9.84872622,8.91619061 11.3039104,12.6763584 11.3039104,9.68456654 C11.3039104,9.33529442 11.117607,8.71834837 11.3039104,8.38072907 C12.0721737,7.05355752 12.7823718,5.97089636 12.7240792,5.80789891 C12.6892343,5.71476157 11.9325102,5.64492988 11.3504081,5.83123298 C11.1525655,5.88938342 11.408587,6.19204425 11.1292599,6.26198962 C10.0349159,6.49479033 9.09200203,5.98254918 9.42962181,5.49361368 C9.76724159,4.99299694 11.0244695,5.28411862 11.1292599,4.28291355 C11.1874388,3.72414636 11.2456177,3.06056059 11.2805763,2.57162509 C14.3190406,3.02560211 16.8452062,5.0861627 17.9278973,7.8684595 C15.0407778,9.97554612 15.7741963,11.4540339 16.7287631,12.2922415 C17.2293521,12.7345373 17.7066354,13.4097759 18.0210348,13.8870585 C17.0198567,16.529692 14.8079768,18.5669469 12.0489817,19.2538383 Z" id="Fill-1"></path>
            </g>
        </g>
    </g>
</svg>